<?xml version="1.0" encoding="UTF-8"?>
<svg width="60px" height="60px" viewBox="0 0 60 60" version="1.1" xmlns="http://www.w3.org/2000/svg" xmlns:xlink="http://www.w3.org/1999/xlink">
    <title>download</title>
    <g id="derived" stroke="none" stroke-width="1" fill="none" fill-rule="evenodd">
        <g id="download" fill="#303936" fill-rule="nonzero">
            <path d="M30,0 C13.4325,0 0,13.4325 0,30 C0,46.56975 13.4325,60 30,60 C46.56975,60 60,46.56975 60,30 C60,13.4325 46.56975,0 30,0 Z M30,54.99975 C16.19175,54.99975 5.00025,43.80825 5.00025,30 C5.00025,16.191 16.19175,5.00025 30,5.00025 C43.80825,5.00025 54.99975,16.191 54.99975,30 C54.99975,43.80825 43.80825,54.99975 30,54.99975 Z" id="Shape"></path>
            <path d="M21.03525,32.49975 L17.49975,36.03525 L28.233,46.76775 C29.2095,47.745 30.7935,47.745 31.76775,46.76775 L42.501,36.03525 L38.9655,32.49975 L32.5005,38.96475 L32.5005,12.50025 L27.501,12.50025 L27.501,38.9655 L21.03525,32.49975 Z" id="Path"></path>
        </g>
    </g>
</svg>