<?xml version="1.0" encoding="UTF-8"?>
<svg width="80px" height="80px" viewBox="0 0 80 80" version="1.1" xmlns="http://www.w3.org/2000/svg" xmlns:xlink="http://www.w3.org/1999/xlink">
    <title>email</title>
    <g id="derived" stroke="none" stroke-width="1" fill="none" fill-rule="evenodd">
        <g id="email" transform="translate(0.000005, 0.000005)" fill="#000000" fill-rule="nonzero">
            <path d="M50.633785,0.292965 C50.243165,-0.097655 49.610345,-0.097655 49.219725,0.292965 L6.402335,43.110345 C6.011715,43.500965 6.011715,44.133785 6.402335,44.524405 L35.475575,73.597645 C35.670885,73.792955 35.926745,73.890615 36.182605,73.890615 C36.438465,73.890615 36.694325,73.792955 36.889635,73.597645 L79.707015,30.780265 C80.097635,30.389645 80.097635,29.756825 79.707015,29.366205 L50.633785,0.292965 Z M50.793575,3.280875 L76.740655,29.227955 L50.425405,31.063705 L50.793575,3.280875 Z M48.320305,38.969725 C48.296865,40.734375 46.843745,42.187495 45.079095,42.210935 L9.660515,42.680295 L48.789665,3.551145 L48.320305,38.969725 Z M36.841425,44.320425 L35.459955,70.753895 L9.390255,44.684195 L36.841425,44.320425 Z M38.846245,44.293875 L45.106435,44.210925 C47.943345,44.173815 50.283195,41.833975 50.320305,38.997055 L50.398855,33.071335 L76.401785,31.257375 L37.494195,70.164975 L38.846245,44.293875 Z" id="Shape"></path>
            <path d="M17.290035,62.709955 C16.899415,62.319335 16.266595,62.319335 15.875975,62.709955 L0.292965,78.292965 C-0.097655,78.683585 -0.097655,79.316405 0.292965,79.707025 C0.488275,79.902335 0.744135,79.999995 1,79.999995 C1.255855,79.999995 1.511715,79.902335 1.707025,79.707025 L17.290035,64.124015 C17.680655,63.733395 17.680655,63.100585 17.290035,62.709955 Z" id="Path"></path>
            <path d="M1,65.083005 C1.255855,65.083005 1.511715,64.985345 1.707025,64.790035 L9.332025,57.165035 C9.722645,56.774415 9.722645,56.141595 9.332025,55.750975 C8.941405,55.360355 8.308585,55.360355 7.917965,55.750975 L0.292965,63.375975 C-0.097655,63.766595 -0.097655,64.399415 0.292965,64.790035 C0.488275,64.985345 0.744135,65.083005 1,65.083005 Z" id="Path"></path>
            <path d="M22.780265,70.614255 L15.155265,78.239255 C14.764645,78.629875 14.764645,79.262695 15.155265,79.653315 C15.350575,79.848625 15.606435,79.946285 15.8623,79.946285 C16.118155,79.946285 16.374015,79.848625 16.569325,79.653315 L24.194325,72.028315 C24.584945,71.637695 24.584945,71.004875 24.194325,70.614255 C23.803705,70.223635 23.170895,70.223625 22.780265,70.614255 Z" id="Path"></path>
        </g>
    </g>
</svg>