<?xml version="1.0" encoding="UTF-8"?>
<svg width="75px" height="75px" viewBox="0 0 75 75" version="1.1" xmlns="http://www.w3.org/2000/svg" xmlns:xlink="http://www.w3.org/1999/xlink">
    <title>folder</title>
    <g id="derived" stroke="none" stroke-width="1" fill="none" fill-rule="evenodd">
        <g id="folder" fill="#81BA32" fill-rule="nonzero">
            <g id="Group" transform="translate(13.775510, 16.836735)">
                <path d="M45.836743,30.1530907 L45.836743,23.0769231 C45.836743,21.2562041 44.3607586,19.7802198 42.5400397,19.7802198 L39.9674779,19.7802198 L39.9674779,0.824175824 C39.9674779,0.368996085 39.5984818,0 39.143302,0 L7.82462072,0 C7.36944098,0 7.00044489,0.368996085 7.00044489,0.824175824 L7.00044489,19.7802198 L4.42788308,19.7802198 C2.60716413,19.7802198 1.13117978,21.2562041 1.13117978,23.0769231 L1.13117978,30.1530907 L0.30700396,30.9772665 C-0.014808062,31.2991188 -0.014808062,31.8209018 0.30700396,32.1427541 L0.30700396,32.1427541 C0.46156813,32.2973263 0.671206912,32.3841646 0.88979929,32.3841646 C1.10839167,32.3841646 1.31803045,32.2973263 1.47259462,32.1427541 L2.53815094,31.0771978 C2.69268682,30.922654 2.77951208,30.7130579 2.77953143,30.4945055 L2.77953143,23.0769231 C2.77953143,22.1665636 3.5175236,21.4285714 4.42788308,21.4285714 L7.00044489,21.4285714 L7.00044489,23.4597527 L6.07623473,24.3839629 C5.75442271,24.7058152 5.75442271,25.2275982 6.07623473,25.5494505 L6.07623473,25.5494505 C6.2307989,25.7040227 6.44043768,25.7908611 6.65903006,25.7908611 C6.87762244,25.7908611 7.08726122,25.7040227 7.24182539,25.5494505 L10.3678213,22.4234547 C10.5490586,22.2426538 10.7971054,22.1450236 11.0529552,22.1537888 C11.308805,22.162554 11.5495885,22.276931 11.7180273,22.4697115 C12.0348131,22.8491359 12.0059915,23.4085085 11.6518872,23.7533654 L7.96606989,27.4391827 C7.81149776,27.5937469 7.72465937,27.8033856 7.72465937,28.021978 C7.72465937,28.2405704 7.81149776,28.4502092 7.96606989,28.6047734 C9.46234367,30.1046895 9.46234367,32.5326731 7.96606989,34.0325893 L4.42788308,37.5707761 C4.10607106,37.8926284 4.10607106,38.4144114 4.42788308,38.7362637 L4.42788308,38.7362637 C4.58244725,38.8908359 4.79208603,38.9776743 5.01067841,38.9776743 C5.22927079,38.9776743 5.43890957,38.8908359 5.59347374,38.7362637 L7.00044489,37.3292926 L7.00044489,42.032967 C7.00044489,42.4881468 7.36944098,42.8571429 7.82462072,42.8571429 L39.143302,42.8571429 C39.5984818,42.8571429 39.9674779,42.4881468 39.9674779,42.032967 L39.9674779,37.3292926 L41.374449,38.7362637 C41.5290132,38.8908359 41.738652,38.9776743 41.9572443,38.9776743 C42.1758367,38.9776743 42.3854755,38.8908359 42.5400397,38.7362637 L42.5400397,38.7362637 C42.8618517,38.4144114 42.8618517,37.8926284 42.5400397,37.5707761 L39.0018529,34.0325893 C37.5055791,32.5326731 37.5055791,30.1046895 39.0018529,28.6047734 C39.156425,28.4502092 39.2432634,28.2405704 39.2432634,28.021978 C39.2432634,27.8033856 39.156425,27.5937469 39.0018529,27.4391827 L35.3146963,23.7520261 C34.9649082,23.4111495 34.9327001,22.8598158 35.2404174,22.4805288 C35.4298866,22.2553336 35.7155843,22.1342701 36.0091674,22.1547734 C36.2422407,22.1745406 36.4602605,22.278079 36.6228693,22.4462225 L39.7260974,25.5494505 C39.8806615,25.7040227 40.0903003,25.7908611 40.3088927,25.7908611 C40.5274851,25.7908611 40.7371239,25.7040227 40.891688,25.5494505 L40.891688,25.5494505 C41.2135,25.2275982 41.2135,24.7058152 40.891688,24.3839629 L39.9674779,23.4597527 L39.9674779,21.4285714 L42.5400397,21.4285714 C43.4503992,21.4285714 44.1883913,22.1665636 44.1883913,23.0769231 L44.1883913,30.4945055 C44.1883834,30.7130936 44.2752107,30.9227317 44.4297718,31.0773008 L45.4953281,32.1428571 C45.6498923,32.2974293 45.8595311,32.3842677 46.0781235,32.3842677 C46.2967158,32.3842677 46.5063546,32.2974293 46.6609188,32.1428571 L46.6609188,32.1428571 C46.9827308,31.8210048 46.9827308,31.2992218 46.6609188,30.9773695 L45.836743,30.1530907 Z M35.8951221,38.6461195 L37.6033295,41.2087912 L9.36500533,41.2087912 L11.0734188,38.6461195 C11.3786529,38.1872209 11.893398,37.911651 12.4445383,37.912087 L34.5233845,37.912087 C35.0746707,37.9115129 35.5896012,38.1870992 35.894916,38.6461195 L35.8951221,38.6461195 Z M22.6597856,35.4395604 L22.6597856,7.41758242 C22.6597856,6.96240268 23.0287816,6.59340659 23.4839614,6.59340659 L23.4839614,6.59340659 C23.9391411,6.59340659 24.3081372,6.96240268 24.3081372,7.41758242 L24.3081372,35.4395604 C24.3081372,35.8947402 23.9391411,36.2637363 23.4839614,36.2637363 L23.4839614,36.2637363 C23.0287816,36.2637363 22.6597856,35.8947402 22.6597856,35.4395604 Z M35.894916,4.21102335 C35.5896012,4.67004369 35.0746707,4.94562993 34.5233845,4.94505584 L12.4445383,4.94505584 C11.8932521,4.94562993 11.3783216,4.67004369 11.0730067,4.21102335 L9.36459325,1.64835165 L37.6029174,1.64835165 L35.894916,4.21102335 Z" id="Shape"></path>
            </g>
        </g>
    </g>
</svg>