<?xml version="1.0" encoding="UTF-8"?>
<svg width="84px" height="86px" viewBox="0 0 84 86" version="1.1" xmlns="http://www.w3.org/2000/svg" xmlns:xlink="http://www.w3.org/1999/xlink">
    <title>linkedin</title>
    <g id="derived" stroke="none" stroke-width="1" fill="none" fill-rule="evenodd">
        <g id="linkedin" transform="translate(0.000000, 0.637820)" fill="#000000" fill-rule="nonzero">
            <path d="M11,0.36218 C4.936713,0.36218 0,5.29889 0,11.36218 C0,17.42547 4.936713,22.36218 11,22.36218 C17.063287,22.36218 22,17.42547 22,11.36218 C22,5.29889 17.063287,0.36218 11,0.36218 Z M11,2.36218 C15.982407,2.36218 20,6.37977 20,11.36218 C20,16.34459 15.982407,20.36218 11,20.36218 C6.017593,20.36218 2,16.34459 2,11.36218 C2,6.37977 6.017593,2.36218 11,2.36218 Z M63,26.36218 C55.690844,26.36218 51.293578,29.98711 48,33.70593 L48,29.36218 C47.999948,28.838596 47.523584,28.362232 47,28.36218 L31,28.36218 C30.476416,28.362232 30,28.838596 30,29.36218 L30,83.36218 C30,83.885764 30.476416,84.36218 31,84.36218 L48,84.36218 C48.523584,84.36218 48.999948,83.885764 49,83.36218 L49,53.36218 C49,50.62848 49.847765,48.06138 51.15625,46.23718 C52.464735,44.41298 54.16965,43.36218 56,43.36218 L58,43.36218 C59.83035,43.36218 61.535265,44.41298 62.84375,46.23718 C64.152235,48.06138 65,50.62848 65,53.36218 L65,83.36218 C65.000052,83.885764 65.476416,84.36218 66,84.36218 L83,84.36218 C83.523584,84.36218 84,83.885764 84,83.36218 L84,48.36218 C84,41.82328 82.745597,36.3021 79.40625,32.39343 C76.066903,28.48476 70.716599,26.36218 63,26.36218 Z M2.8125,28.3621782 C2.354098,28.449647 1.9917766,28.89558 1.99986275,29.3621782 L1.99986275,83.3621782 C1.99986275,83.885764 2.476416,84.3621782 3,84.3621782 L20,84.3621782 C20.523584,84.3621782 21,83.885764 21,83.3621782 L21,29.3621782 C21,28.838596 20.523584,28.3621782 20,28.3621782 C14.276904,28.3621782 8.521174,28.3621782 2.8125,28.3621782 Z M63,28.36218 C70.35483,28.36218 75.013454,30.31995 77.90625,33.70593 C80.799046,37.09191 82,42.07958 82,48.36218 L82,82.36218 L67,82.36218 L67,53.36218 C67,50.22348 66.052265,47.25738 64.46875,45.04968 C62.885235,42.84198 60.601649,41.36218 58,41.36218 L56,41.36218 C53.398351,41.36218 51.114765,42.84198 49.53125,45.04968 C47.947735,47.25738 47,50.22348 47,53.36218 L47,66.36218 C46.280197,66.361975 45.516593,66.36218 44.8125,66.36218 C44.288901,66.41127 43.857163,66.932331 43.90625,67.45593 C43.955338,67.979529 44.476401,68.411267 45,68.36218 L47,68.36218 L47,74.36218 C46.280197,74.361975 45.516593,74.36218 44.8125,74.36218 C44.288901,74.41127 43.857163,74.932331 43.90625,75.45593 C43.955338,75.979529 44.476401,76.411267 45,76.36218 L47,76.36218 L47,82.36218 L32,82.36218 L32,30.36218 L46,30.36218 L46,36.36218 C45.999592,37.18482 47.26756,37.629721 47.78125,36.98718 C51.169586,32.76271 55.116114,28.36218 63,28.36218 Z M4,30.36218 L19,30.36218 L19,66.36218 C18.280197,66.361975 17.516593,66.36218 16.8125,66.36218 C16.288901,66.41127 15.857163,66.932331 15.90625,67.45593 C15.955338,67.979529 16.476401,68.411267 17,68.36218 L19,68.36218 L19,74.36218 C18.280197,74.361975 17.516593,74.36218 16.8125,74.36218 C16.288901,74.41127 15.857163,74.932331 15.90625,75.45593 C15.955338,75.979529 16.476401,76.411267 17,76.36218 L19,76.36218 L19,82.36218 L4,82.36218 L4,30.36218 Z" id="Shape"></path>
        </g>
    </g>
</svg>