<?xml version="1.0" encoding="UTF-8"?>
<svg width="68px" height="88px" viewBox="0 0 68 88" version="1.1" xmlns="http://www.w3.org/2000/svg" xmlns:xlink="http://www.w3.org/1999/xlink">
    <title>lock</title>
    <g id="derived" stroke="none" stroke-width="1" fill="none" fill-rule="evenodd">
        <path d="M63.244,88 L4.757,88 C2.672,88 0.983,86.311 0.983,84.225 L0.983,46.113 C0.983,44.029 2.672,42.34 4.757,42.34 L8.53,42.34 L8.53,26.191 C8.53,12.125 19.933,0.721 34.001,0.721 C48.066,0.721 59.471,12.124 59.471,26.191 L59.471,42.34 L63.244,42.34 C65.328,42.34 67.0170004,44.029 67.0170004,46.113 L67.0170004,84.224 C67.018,86.311 65.328,88 63.244,88 Z M47.482,26.945 C47.482,19.5 41.445,13.465 34.001,13.465 C26.555,13.465 20.52,19.5 20.52,26.945 L20.52,42.34 L47.483,42.34 L47.483,26.945 L47.482,26.945 Z" id="lock" fill="#303936" fill-rule="nonzero"></path>
    </g>
</svg>