<?xml version="1.0" encoding="UTF-8"?>
<svg width="75px" height="75px" viewBox="0 0 75 75" version="1.1" xmlns="http://www.w3.org/2000/svg" xmlns:xlink="http://www.w3.org/1999/xlink">
    <title>Group 10</title>
    <g id="derived" stroke="none" stroke-width="1" fill="none" fill-rule="evenodd">
        <g id="Group-10" fill="#81BA32" fill-rule="nonzero">
            <g id="Group-Copy-6" transform="translate(13.000000, 20.000000)">
                <path d="M32.13,0 L0,0 L0,21.3836333 L4.4625,21.3836333 C4.95541414,21.3836333 5.355,21.7825407 5.355,22.274618 L5.355,25.4696892 L9.1865025,21.6446918 C9.35383976,21.4775882 9.58081363,21.3836837 9.8175,21.3836333 L32.13,21.3836333 L32.13,0 Z M14.28,2.67295416 L16.065,2.67295416 L16.065,4.4549236 L14.28,4.4549236 L14.28,2.67295416 Z M2.6775,3.56393888 C2.6775,3.07186161 3.07708586,2.67295416 3.57,2.67295416 L10.71,2.67295416 C11.2029141,2.67295416 11.6025,3.07186161 11.6025,3.56393888 L11.6025,10.6918166 C11.6025,11.1838939 11.2029141,11.5828014 10.71,11.5828014 L3.57,11.5828014 C3.07708586,11.5828014 2.6775,11.1838939 2.6775,10.6918166 L2.6775,3.56393888 Z M25.8825,18.7106791 L2.6775,18.7106791 L2.6775,16.9287097 L25.8825,16.9287097 L25.8825,18.7106791 Z M29.4525,15.1467402 L2.6775,15.1467402 L2.6775,13.3647708 L29.4525,13.3647708 L29.4525,15.1467402 Z M29.4525,11.5828014 L14.28,11.5828014 L14.28,9.80083192 L29.4525,9.80083192 L29.4525,11.5828014 Z M29.4525,8.01886248 L14.28,8.01886248 L14.28,6.23689304 L29.4525,6.23689304 L29.4525,8.01886248 Z M29.4525,4.4549236 L17.85,4.4549236 L17.85,2.67295416 L29.4525,2.67295416 L29.4525,4.4549236 Z" id="Shape"></path>
                <rect id="Rectangle" x="4.4625" y="4.4549236" width="5.355" height="5.34590832"></rect>
                <path d="M33.915,8.01886248 L33.915,22.274618 C33.915,22.7666953 33.5154141,23.1656027 33.0225,23.1656027 L17.85,23.1656027 L17.85,29.4024958 L40.1625,29.4024958 C40.3991864,29.4025462 40.6261602,29.4964507 40.7934975,29.6635543 L44.625,33.4885517 L44.625,30.2934805 C44.625,29.8014032 45.0245859,29.4024958 45.5175,29.4024958 L49.98,29.4024958 L49.98,8.01886248 L33.915,8.01886248 Z M47.3025,26.7295416 L20.5275,26.7295416 L20.5275,24.9475722 L47.3025,24.9475722 L47.3025,26.7295416 Z M47.3025,23.1656027 L36.5925,23.1656027 L36.5925,21.3836333 L47.3025,21.3836333 L47.3025,23.1656027 Z M47.3025,19.6016638 L36.5925,19.6016638 L36.5925,17.8196944 L47.3025,17.8196944 L47.3025,19.6016638 Z M47.3025,16.037725 L36.5925,16.037725 L36.5925,14.2557555 L47.3025,14.2557555 L47.3025,16.037725 Z M47.3025,12.4737861 L36.5925,12.4737861 L36.5925,10.6918166 L47.3025,10.6918166 L47.3025,12.4737861 Z" id="Shape"></path>
            </g>
        </g>
    </g>
</svg>