<?xml version="1.0" encoding="UTF-8"?>
<svg width="75px" height="75px" viewBox="0 0 75 75" version="1.1" xmlns="http://www.w3.org/2000/svg" xmlns:xlink="http://www.w3.org/1999/xlink">
    <title>painting</title>
    <g id="derived" stroke="none" stroke-width="1" fill="none" fill-rule="evenodd">
        <g id="painting" fill="#EE9C02">
            <path d="M13.1408865,19.9202439 C12.589507,19.7823994 12.1031727,20.3075802 12.2829009,20.8467635 L13.6474954,24.9405482 L12.2829009,29.0343328 C12.2336187,29.1821781 12.2336187,29.3420193 12.2829009,29.4898646 L13.6162981,33.4900567 C13.4416037,33.78573 13.2346468,34.1772747 13.0282755,34.6416095 C12.5406749,35.7387114 12.2459394,36.8439689 12.2459394,37.9051998 C12.2459394,38.9664307 12.5406749,40.0716882 13.0282755,41.1687901 C13.2346468,41.6331249 13.4416037,42.0246696 13.6162981,42.3203429 L12.2829009,46.320535 C12.2336187,46.4683803 12.2336187,46.6282215 12.2829009,46.7760668 L13.6474954,50.8698515 L12.2829009,54.9636361 C12.1031727,55.5028194 12.589507,56.0280002 13.1408865,55.8901557 L18.7282653,54.4933103 L24.3156441,55.8901557 C24.430338,55.9188284 24.5503273,55.9188284 24.6650213,55.8901557 L30.1945936,54.5077622 C30.2946605,54.548343 30.4157698,54.5960191 30.5563138,54.6493586 C31.0172958,54.8243108 31.5294147,54.9988978 32.0802568,55.1618239 C33.6234623,55.6182668 35.1684584,55.8977573 36.6275723,55.9111663 C38.2327856,55.9116604 39.6929951,55.6264107 41.0609639,55.1515768 C41.7080325,54.9269728 42.2269254,54.7006813 42.5907676,54.5168044 L48.0841721,55.8901557 C48.198866,55.9188284 48.3188553,55.9188284 48.4335493,55.8901557 L54.0306631,54.4908765 L60.3470083,55.8945089 C60.8935288,56.0159582 61.3635918,55.4947597 61.1865508,54.9636361 L59.8219564,50.8698515 L61.1865508,46.7760668 C61.2358331,46.6282215 61.2358331,46.4683803 61.1865508,46.320535 L59.8531537,42.3203429 C60.0278481,42.0246696 60.234805,41.6331249 60.4411763,41.1687901 C60.9287768,40.0716882 61.2235123,38.9664307 61.2235123,37.9051998 C61.2235123,36.8439689 60.9287768,35.7387114 60.4411763,34.6416095 C60.234805,34.1772747 60.0278481,33.78573 59.8531537,33.4900567 L61.1865508,29.4898646 C61.2358331,29.3420193 61.2358331,29.1821781 61.1865508,29.0343328 L59.8219564,24.9405482 L61.1865508,20.8467635 C61.3635918,20.3156399 60.8935288,19.7944414 60.3470083,19.9158907 L54.0306631,21.3195231 L48.4335493,19.9202439 C48.3188553,19.8915712 48.198866,19.8915712 48.0841721,19.9202439 L42.5722288,21.2982301 C42.4910269,21.2612059 42.3962503,21.2191112 42.2887654,21.1728497 C41.8787647,20.9963864 41.4225747,20.820366 40.9307361,20.6560945 C39.5153059,20.1833486 38.0905684,19.8987392 36.7347259,19.8987392 C36.255108,19.8987392 35.745801,19.935105 35.2102492,20.0042657 C34.2529502,20.1278901 33.2397151,20.3516881 32.208578,20.6467989 C31.6430124,20.808664 31.1071754,20.981979 30.6172484,21.1555008 C30.4554625,21.2128024 30.3173703,21.2633818 30.2056611,21.3054046 L24.6650213,19.9202439 C24.5503273,19.8915712 24.430338,19.8915712 24.3156441,19.9202439 L18.7282653,21.3170894 L13.1408865,19.9202439 Z M56.1817034,25.6608066 L56.1817034,50.149593 C56.1817034,50.547381 55.8592329,50.8698515 55.4614449,50.8698515 L18.0080068,50.8698515 C17.6102189,50.8698515 17.2877484,50.547381 17.2877484,50.149593 L17.2877484,25.6608066 C17.2877484,25.2630187 17.6102189,24.9405482 18.0080068,24.9405482 L55.4614449,24.9405482 C55.8592329,24.9405482 56.1817034,25.2630187 56.1817034,25.6608066 Z M48.2588607,35.7444245 C50.2477996,35.7444245 51.8601528,34.1320713 51.8601528,32.1431324 C51.8601528,30.1541935 50.2477996,28.5418403 48.2588607,28.5418403 C46.2699218,28.5418403 44.6575686,30.1541935 44.6575686,32.1431324 C44.6575686,34.1320713 46.2699218,35.7444245 48.2588607,35.7444245 Z M45.1008451,43.2295907 C47.9027318,42.167965 51.2175188,41.5481301 54.7411865,41.5085151 L54.7411865,49.4293346 L37.4004881,49.4293346 C38.4069276,47.0367283 41.3866907,44.7307172 45.1008451,43.2295907 L45.1008451,43.2295907 Z M43.8351422,42.1986214 C39.2598705,39.0323221 32.829157,37.1849414 25.9308495,37.1849414 C23.4611244,37.1849414 21.0406845,37.4202585 18.7282653,37.877606 L18.7282653,49.4293346 L35.8673475,49.4293346 C36.7739973,46.5995178 39.8769642,43.9515165 43.8351422,42.1986214 L43.8351422,42.1986214 Z" id="Shape"></path>
        </g>
    </g>
</svg>