<?xml version="1.0" encoding="UTF-8"?>
<svg width="75px" height="75px" viewBox="0 0 75 75" version="1.1" xmlns="http://www.w3.org/2000/svg" xmlns:xlink="http://www.w3.org/1999/xlink">
    <title>person</title>
    <g id="derived" stroke="none" stroke-width="1" fill="none" fill-rule="evenodd">
        <g id="person" fill="#FF3F42" fill-rule="nonzero">
            <g id="Group" transform="translate(18.367347, 13.775510)">
                <path d="M29.2818351,45.9898103 C28.5654847,42.1335865 28.2992016,40.6986485 28.1081955,39.2770612 C28.0108094,38.5523914 28.0299499,37.8169096 28.1579519,37.0968798 L28.2078854,36.8157229 L32.3018225,46.995112 C32.5084689,47.5089688 32.8546812,47.924948 33.2765251,48.2285608 C33.7623036,48.5781358 34.3495,48.7770424 34.9587168,48.7770424 C35.2926119,48.7770424 35.6319125,48.7188674 35.9625732,48.5962579 C37.4364349,48.0497899 38.1856165,46.4288584 37.6383847,44.970589 L36.0911954,40.8477848 L31.1918958,27.7927414 C30.1365107,24.9805149 27.4213088,23.1141016 24.3854596,23.1141016 L19.0102176,23.1141016 C16.9162397,23.1141016 14.980215,22.0139868 13.9272668,20.2257968 L6.25423624,7.19491634 C5.69619362,6.24717692 4.69685652,5.73437076 3.68059421,5.73437076 C3.03101402,5.73437076 2.37461053,5.94378305 1.82175185,6.38296226 C0.739694131,7.24262941 0.404071046,8.72781945 1.01328788,9.96048035 L11.6863237,31.5556839 C13.4520334,34.8194776 11.7712153,40.1010531 10.8193307,45.9898104" id="Shape"></path>
                <path d="M21.1157584,20.5766713 C25.0071535,20.5766713 28.1617786,17.2316206 28.1617786,13.1053255 C28.1617786,12.6795901 28.1204073,12.2649359 28.055899,11.8586723 C28.9574662,13.3694036 30.4734099,14.9754876 32.8703211,14.9754876 C36.3746668,14.9754876 36.3331778,12.0636509 36.3331778,12.0636509 C34.7915055,11.961458 33.4965671,10.2768027 31.6870679,6.0289796 C29.5437601,0.997586358 26.333142,1.28469322 26.333142,1.28469322 C22.6825776,1.28469322 21.8538187,4.61610902 21.6827429,5.6643502 C21.4951959,5.64848091 21.3071759,5.63397963 21.1157584,5.63397963 C17.2243633,5.63397963 14.0697382,8.97898469 14.0697382,13.1053255 C14.0697382,17.2316206 17.2243633,20.5766713 21.1157584,20.5766713 Z M19.8811137,10.3612567 C21.0870307,12.0688496 23.1750765,13.8864788 26.6537479,14.1981648 C26.1675708,16.9731971 23.8715075,19.0824021 21.1157584,19.0824021 C18.0076224,19.0824021 15.4789423,16.4010809 15.4789423,13.1053255 C15.4789423,12.9389257 15.4898657,12.7753988 15.5025093,12.6123735 C17.8034322,12.3413639 19.4024195,10.8606384 19.8811137,10.3612567 Z" id="Shape"></path>
            </g>
        </g>
    </g>
</svg>