<?xml version="1.0" encoding="UTF-8"?>
<svg width="75px" height="75px" viewBox="0 0 75 75" version="1.1" xmlns="http://www.w3.org/2000/svg" xmlns:xlink="http://www.w3.org/1999/xlink">
    <title>tools</title>
    <g id="derived" stroke="none" stroke-width="1" fill="none" fill-rule="evenodd">
        <g id="tools" fill="#21D4CE" fill-rule="nonzero">
            <g id="Group-4-Copy-2" transform="translate(13.000000, 14.000000)">
                <path d="M48.1270804,1.33584913 L42.003252,0.383004571 C41.8002198,0.351406464 41.5928922,0.40138504 41.4268855,0.521944005 C41.2608788,0.642502971 41.1497935,0.823765189 41.1180706,1.02584932 L37.0397473,26.9902611 L34.4202301,26.9902611 L35.3397922,20.0421591 C35.3946701,19.627537 35.1075013,19.2449435 34.6924669,19.1797311 L35.0048953,17.2100371 L36.5176452,16.1151093 C36.6839421,15.9948788 36.7954246,15.813806 36.8275555,15.6117452 L38.3980262,5.7094876 C38.464775,5.28881455 38.1762599,4.8939336 37.7536064,4.82749187 L31.6312307,3.86558637 C31.2085763,3.79915051 30.8118354,4.08631311 30.7450808,4.50698523 L29.1743196,14.4089536 C29.1422413,14.6109972 29.1921288,14.8174484 29.3130044,14.9828774 L30.4131862,16.4885357 L30.1006609,18.4580369 L30.1006609,18.4580369 C29.6856261,18.3928312 29.294013,18.6687756 29.2179007,19.0800608 L27.7532838,26.9902611 L26.4927234,26.9902611 L26.3131691,20.0306883 C26.3023999,19.6125338 25.9586552,19.2791677 25.5383933,19.2793051 L25.5383933,17.2847416 L26.8610325,15.9683992 C27.0065071,15.8238549 27.0883083,15.6276962 27.0884292,15.4231041 L27.0884292,5.42001949 C27.091603,5.20819045 27.0098381,5.00383456 26.8612262,4.85216848 C26.6251485,4.61807915 26.2652163,4.56026016 25.9671349,4.70854294 L19.768928,7.79311815 C19.5064703,7.92374511 19.3406806,8.19074291 19.3406706,8.48280989 L19.3406706,15.4231041 C19.3406888,15.6276409 19.4223475,15.8237917 19.5676799,15.9683992 L20.8902223,17.2847416 L20.8902223,19.2788231 C20.4699604,19.2786858 20.1262157,19.6120519 20.1154465,20.0302064 L19.9363764,26.9902611 L18.1512928,26.9902611 C17.4217445,24.242001 16.8952843,21.9653917 16.503054,19.8660491 L14.2369314,7.73576433 L14.998633,7.59474141 C15.0542118,7.5844907 15.1084842,7.56816572 15.1604643,7.54606296 L21.7323068,4.76098072 C22.0664829,4.61941055 22.2570063,4.26579746 22.1905868,3.91040911 L21.6240319,0.877886106 C21.5576252,0.522590309 21.2522232,0.260853649 20.8893507,0.248247191 L13.7508564,0.0002754138 C13.6943636,-0.00116603937 13.6378323,0.00303534512 13.5822458,0.0132411174 L0.633029449,2.41005245 C0.212434833,2.48803338 -0.0650460863,2.8905659 0.0132087579,3.30920612 L1.14631846,9.37444491 C1.18377617,9.57556388 1.30004683,9.75360358 1.46950483,9.86932474 C1.63896282,9.9850459 1.84769843,10.0289497 2.04970712,9.99135995 L8.14341613,8.86356214 L10.4096355,20.9938469 C10.7464693,22.7971667 11.0332333,24.7213633 11.3025647,26.9903575 L9.77170445,26.9903575 L7.68048755,15.7499727 C7.44672211,14.4935944 6.23392484,13.6637145 4.97162902,13.896384 C3.7093332,14.1290536 2.87554455,15.3361654 3.10930996,16.5925437 L5.04411898,26.9902611 L1.5493956,26.9902611 C1.12149871,26.9902611 0.774619738,27.335514 0.774619738,27.7614049 L0.774619738,30.8459802 C0.774619738,31.2718711 1.12149871,31.617124 1.5493956,31.617124 L2.32417146,31.617124 L2.32417146,43.9554248 C2.32417146,45.6589886 3.71168734,47.04 5.42327492,47.04 L10.0719301,47.04 C10.499827,47.04 10.846706,46.6947472 10.846706,46.2688562 C10.846706,45.8429652 10.499827,45.4977124 10.0719301,45.4977124 L5.42327492,45.4977124 C4.56748113,45.4977124 3.87372319,44.8072067 3.87372319,43.9554248 L3.87372319,31.617124 L7.74760251,31.617124 L7.74760251,35.472843 C7.74760251,35.8987339 8.09448148,36.2439868 8.52237837,36.2439868 L10.846706,36.2439868 L10.846706,37.0151306 C10.846706,37.4410215 11.1935849,37.7862744 11.6214818,37.7862744 C12.0493787,37.7862744 12.3962577,37.4410215 12.3962577,37.0151306 L12.3962577,36.2439868 L14.7205853,36.2439868 C15.1484822,36.2439868 15.4953611,35.8987339 15.4953611,35.472843 L15.4953611,31.617124 L17.8196887,31.617124 L17.8196887,39.328562 C17.8196887,39.7544529 18.1665677,40.0997058 18.5944646,40.0997058 C19.0223615,40.0997058 19.3692405,39.7544529 19.3692405,39.328562 L19.3692405,31.617124 L28.6665508,31.617124 L28.6665508,38.5574182 C28.6665508,38.9833091 29.0134298,39.328562 29.4413267,39.328562 C29.8692236,39.328562 30.2161026,38.9833091 30.2161026,38.5574182 L30.2161026,31.617124 L32.5404301,31.617124 L32.5404301,35.472843 C32.5404301,35.8987339 32.8873091,36.2439868 33.315206,36.2439868 L35.6395336,36.2439868 L35.6395336,37.0151306 C35.6395336,37.4410215 35.9864126,37.7862744 36.4143095,37.7862744 C36.8422064,37.7862744 37.1890853,37.4410215 37.1890853,37.0151306 L37.1890853,36.2439868 L39.5134129,36.2439868 C39.9413098,36.2439868 40.2881888,35.8987339 40.2881888,35.472843 L40.2881888,31.617124 L44.1620681,31.617124 L44.1620681,38.5574182 C44.1620681,38.9833091 44.5089471,39.328562 44.936844,39.328562 C45.3647409,39.328562 45.7116198,38.9833091 45.7116198,38.5574182 L45.7116198,31.617124 L46.4863957,31.617124 C46.9142926,31.617124 47.2611715,31.2718711 47.2611715,30.8459802 L47.2611715,27.7614049 C47.2611715,27.335514 46.9142926,26.9902611 46.4863957,26.9902611 L44.8816412,26.9902611 L48.7728561,2.2172665 C48.804717,2.01514068 48.7545688,1.80869781 48.6334515,1.64338514 C48.5123342,1.47807248 48.3301769,1.36744226 48.1270804,1.33584913 Z M42.1704099,4.31150028 L42.9355011,4.430642 C43.1385193,4.46223897 43.3206111,4.57281313 43.4417178,4.73803901 C43.5628245,4.90326488 43.6130254,5.10960776 43.5812767,5.31167379 L43.5812767,5.31167379 C43.5495539,5.51375792 43.4384685,5.69502014 43.2724618,5.81557911 C43.1064551,5.93613807 42.8991275,5.98611665 42.6960953,5.95451854 L41.9310041,5.83537682 L42.1704099,4.31150028 Z M41.5719924,8.12095066 L42.3370835,8.24009238 C42.5401018,8.27168936 42.7221936,8.38226352 42.8433003,8.54748939 C42.964407,8.71271526 43.0146079,8.91905814 42.9828592,9.12112417 L42.9828592,9.12112417 C42.9511363,9.32320831 42.840051,9.50447052 42.6740443,9.62502949 C42.5080376,9.74558846 42.30071,9.79556703 42.0976778,9.76396892 L41.3325866,9.64482721 L41.5719924,8.12095066 Z M40.9736717,11.930401 L41.7387629,12.0494464 C42.0122593,12.0919944 42.2421745,12.276535 42.3419015,12.5335535 C42.4416285,12.7905721 42.3960165,13.0810213 42.222247,13.2954918 C42.0484776,13.5099623 41.7729504,13.6158709 41.499454,13.5733229 L40.7343628,13.4541812 L40.9736717,11.930401 Z M40.3752542,15.7398514 L41.1403454,15.8589931 C41.3433636,15.8905901 41.5254554,16.0011643 41.6465621,16.1663902 C41.7676688,16.331616 41.8178698,16.5379589 41.7861211,16.7400249 L41.7861211,16.7400249 C41.7543982,16.9421091 41.6433129,17.1233713 41.4773061,17.2439303 C41.3112994,17.3644892 41.1039718,17.4144678 40.9009396,17.3828697 L40.1358485,17.263728 L40.3752542,15.7398514 Z M39.7769336,19.5493018 L40.5420247,19.6684435 C40.8160103,19.7104422 41.0465734,19.8949394 41.1466354,20.1522545 C41.2466974,20.4095696 41.2010088,20.7004878 41.0268253,20.9151356 C40.8526418,21.1297835 40.5765088,21.2354486 40.3027158,21.1922237 L39.5376247,21.0731784 L39.7769336,19.5493018 Z M39.178516,23.3587522 L39.9436072,23.4778939 C40.1466254,23.5094909 40.3287173,23.620065 40.449824,23.7852909 C40.5709307,23.9505168 40.6211316,24.1568597 40.5893829,24.3589257 L40.5893829,24.3589257 C40.55766,24.5610098 40.4465747,24.7422721 40.280568,24.862831 C40.1145612,24.98339 39.9072337,25.0333686 39.7042015,25.0017705 L38.9391103,24.8826287 L39.178516,23.3587522 Z M32.0340173,6.27088029 L32.1548823,5.50937578 L36.7466883,6.23106999 L36.6256296,6.99402039 C36.5579144,7.41388607 36.1617441,7.70013808 35.7396734,7.63416614 L32.6785339,7.15258683 C32.2559292,7.08618919 31.9673897,6.69142051 32.0340173,6.27078389 L32.0340173,6.27088029 Z M31.6925348,8.42352821 C31.9244278,8.54923653 32.176156,8.63467585 32.4369007,8.6761742 L35.4980402,9.15756072 C35.6183809,9.17663548 35.7400372,9.18630431 35.8618943,9.18647861 C36.0035231,9.18639081 36.1448413,9.17329004 36.2840503,9.14734306 L35.3466683,15.0562324 L33.8339184,16.1512566 C33.6676216,16.2714871 33.556139,16.4525599 33.5240081,16.6546208 L33.1615098,18.9397126 L31.6313275,18.6987302 L31.9937289,16.4136383 C32.0257806,16.2116261 31.9758943,16.0052149 31.855044,15.8398109 L30.7548623,14.3341527 L31.6925348,8.42352821 Z M30.6049432,20.0987418 L33.7048214,20.5859119 L33.5024112,22.1154756 L30.3240869,21.6159672 L30.6049432,20.0987418 Z M20.8902223,8.95937676 L25.5388775,6.64594535 L25.5388775,8.77738682 L20.8902223,11.0908182 L20.8902223,8.95937676 Z M20.8902223,12.8150958 L25.5388775,10.5016644 L25.5388775,15.1037542 L24.2162383,16.4200967 C24.0709413,16.5647199 23.9893183,16.7608688 23.9893258,16.9653917 L23.9893258,19.2788231 L22.4397741,19.2788231 L22.4397741,16.9653917 C22.4397815,16.7608688 22.3581585,16.5647199 22.2128616,16.4200967 L20.8902223,15.1037542 L20.8902223,12.8150958 Z M24.8234688,22.3633983 L21.605631,22.3633983 L21.6453383,20.8211107 L24.7837616,20.8211107 L24.8234688,22.3633983 Z M9.66662548,8.5815163 L12.7134316,8.01771378 L14.979651,20.148095 C15.3599691,22.1839146 15.8633797,24.3791682 16.5493469,26.9902611 L12.8623822,26.9902611 C12.582785,24.6079088 12.2849805,22.5970549 11.9326512,20.7118011 L9.66662548,8.5815163 Z M6.72102449,19.0638668 L7.00333345,20.5801283 L5.47963986,20.8610174 L5.1975246,19.3444667 L6.72102449,19.0638668 Z M4.91531249,17.8282052 L4.63319723,16.3116546 C4.58018205,16.0396559 4.67784977,15.7602567 4.88904354,15.579752 C5.10023732,15.3992472 5.39248994,15.3453862 5.65461641,15.43866 C5.91674288,15.5319337 6.108446,15.758003 6.15679397,16.0308618 L6.43900608,17.5474125 L4.91531249,17.8282052 Z M13.9458094,34.7016992 L12.3962577,34.7016992 L12.3962577,33.9305554 C12.3962577,33.5046644 12.0493787,33.1594116 11.6214818,33.1594116 C11.1935849,33.1594116 10.846706,33.5046644 10.846706,33.9305554 L10.846706,34.7016992 L9.29715424,34.7016992 L9.29715424,31.617124 L13.9458094,31.617124 L13.9458094,34.7016992 Z M38.738637,34.7016992 L37.1890853,34.7016992 L37.1890853,33.9305554 C37.1890853,33.5046644 36.8422064,33.1594116 36.4143095,33.1594116 C35.9864126,33.1594116 35.6395336,33.5046644 35.6395336,33.9305554 L35.6395336,34.7016992 L34.0899819,34.7016992 L34.0899819,31.617124 L38.738637,31.617124 L38.738637,34.7016992 Z M45.7116198,28.5325487 L45.7116198,30.0748364 L2.32417146,30.0748364 L2.32417146,28.5325487 L45.7116198,28.5325487 Z" id="Shape"></path>
                <path d="M44.0100507,40.0711111 L36.4351775,40.0711111 C36.3175664,40.0711111 36.2015704,40.1025998 36.0963913,40.1631222 L34.7413411,40.9422222 L33.5840899,40.9422222 L32.2290398,40.1631222 C32.1238607,40.1025998 32.0078646,40.0711111 31.8902535,40.0711111 L29.6177916,40.0711111 C29.1994429,40.0711111 28.8603043,40.4611208 28.8603043,40.9422222 L14.4680451,40.9422222 C14.2671442,40.9422138 14.074469,41.0339858 13.9324069,41.1973489 L12.4174323,42.9395711 C12.2753674,43.1029374 12.1955556,43.3245147 12.1955556,43.5555556 C12.1955556,43.7865964 12.2753674,44.0081737 12.4174323,44.17154 L13.9324069,45.9137622 C14.074469,46.0771253 14.2671442,46.1688973 14.4680451,46.1688889 L28.8603043,46.1688889 C28.8603043,46.6499903 29.1994429,47.04 29.6177916,47.04 L31.8902535,47.04 C32.0078646,47.04 32.1238607,47.0085114 32.2290398,46.9479889 L33.5840899,46.1688889 L34.7413411,46.1688889 L36.0963913,46.9479889 C36.2015704,47.0085114 36.3175664,47.04 36.4351775,47.04 L44.0100507,47.04 C45.6834455,47.04 47.04,45.4799611 47.04,43.5555556 C47.04,41.63115 45.6834455,40.0711111 44.0100507,40.0711111 L44.0100507,40.0711111 Z M28.8603043,44.4266667 L14.7818342,44.4266667 L14.0243469,43.5555556 L14.7818342,42.6844444 L28.8603043,42.6844444 L28.8603043,44.4266667 Z M44.0100507,45.2977778 L43.2525634,45.2977778 L43.2525634,41.8133333 L44.0100507,41.8133333 C44.8467481,41.8133333 45.5250254,42.5933528 45.5250254,43.5555556 C45.5250254,44.5177583 44.8467481,45.2977778 44.0100507,45.2977778 Z" id="Shape"></path>
            </g>
        </g>
    </g>
</svg>